<svg width="250" height="338" viewBox="0 0 250 338" fill="none" xmlns="http://www.w3.org/2000/svg">
<path fill-rule="evenodd" clip-rule="evenodd" d="M196.021 205.61C195.329 203.711 196.339 201.817 196.899 199.98C198.889 193.608 201.061 187.237 204.135 181.295C205.299 179.307 203.383 176.869 201.164 177.429C197.364 177.961 193.447 177.538 189.64 177.303C188.248 173.7 184.533 172.206 181.61 170.131C178.292 168.059 175.064 165.68 171.613 163.863C171.421 162.147 169.341 161.722 168.069 162.95C164.576 160.776 160.386 161.179 156.641 159.755C153.796 155.153 153.582 150.315 152.829 145.876C152.5 143.941 152.849 142.074 151.528 140.349C147.088 134.102 129.544 131.393 123.076 135.095C119.595 132.923 119.511 136.857 118.958 139.285C118.343 140.5 118.011 141.876 118.113 143.325C114.373 151.14 105.817 154.673 98.1548 157.534C97.1935 156.609 95.8196 156.726 94.905 157.492C88.2632 158.936 81.8172 161.475 76.2525 165.44C69.9303 167.29 65.4778 172.433 62.2582 177.949C61.9034 178.53 61.8198 179.123 61.9235 179.668C52.0227 194.186 47.2974 211.568 46.6336 229.122C40.2668 232.945 49.6598 267.285 51.8464 274.414C51.8486 274.413 51.8508 274.412 51.853 274.411C53.2716 276.923 54.8823 284.092 58.4325 283.538C60.8678 286.292 64.7487 285.751 68.0535 285.962C67.5152 288.028 67.7797 290.391 68.4204 292.432C69.1781 294.862 72.8964 294.944 73.4237 292.296C106.334 298.692 140.101 293.588 173.381 294.548C183.004 294.617 192.625 294.914 202.225 295.6C203.576 295.697 204.947 294.315 204.855 292.969C202.791 271.003 200.853 242.108 198.545 220.357C197.997 215.397 197.565 210.382 196.021 205.61Z" fill="white"/>
<path fill-rule="evenodd" clip-rule="evenodd" d="M119.501 136.451C119.595 136.193 119.98 136.227 119.987 136.517C120.139 142.693 118.602 150.24 113.661 154.412C111.126 156.553 107.773 157.533 104.694 158.659L104.347 158.787L98.9068 160.815C97.4641 161.352 95.9077 162.179 94.6333 161.42C95.6645 163.978 96.5303 166.607 97.7862 169.072C99.3496 172.141 101.24 174.95 103.553 177.504C112.718 187.622 127.223 190.708 140.24 187.744C146.942 186.217 153.465 183.323 158.037 178.046C161.513 174.035 163.509 168.651 163.98 163.341C163.842 163.363 163.698 163.362 163.55 163.329C161.903 162.97 160.241 162.087 158.791 161.221L158.652 161.137C157.257 160.297 155.804 159.335 154.803 158.031C153.81 156.735 152.767 152.509 152.767 152.509C152.482 150.92 152.216 147.756 152.262 146.15C152.266 145.999 152.938 145.909 153.009 146.067C153.63 147.43 153.831 150.425 154.31 151.843L154.407 152.127C154.919 153.608 155.357 155.412 156.418 156.609C158.41 158.858 161.415 159.81 164.098 160.938C164.29 158.396 168.349 158.456 168.297 161.107C168.294 161.25 168.288 161.393 168.283 161.537C168.603 161.713 168.911 161.914 169.198 162.108L169.479 162.299C170.542 163.022 171.612 163.709 172.744 164.322C174.934 165.51 177.253 166.452 179.497 167.53C181.768 168.621 183.891 169.92 185.874 171.476C186.805 172.206 187.698 172.984 188.545 173.811L188.774 174.037C189.58 174.84 190.629 175.738 191.089 176.794C191.19 177.027 191.697 177.568 191.972 177.586C196.236 177.865 200.491 178.26 204.729 178.852C205.826 179.006 206.259 179.571 205.854 180.486C204.46 183.629 199.005 196.183 197.554 199.552C197.724 202.027 197.495 204.941 197.648 207.416C197.871 211.029 198.163 214.641 198.514 218.243C199.768 231.131 201.67 243.955 203.388 256.786C204.248 263.208 205.033 269.639 205.807 276.071C206.197 279.322 206.529 282.576 206.784 285.84C206.891 287.2 206.987 288.561 207.072 289.923L207.145 291.131C207.247 292.651 207.479 294.103 206.539 295.407C206.113 295.999 205.139 296.332 204.579 295.66C203.874 294.815 203.612 294.183 203.545 293.073C203.493 292.223 203.481 291.37 203.442 290.519C203.358 288.675 203.253 286.832 203.13 284.99C202.884 281.307 202.604 277.626 202.279 273.95C201.139 261.059 198.974 248.265 197.533 235.406C196.807 228.923 196.291 222.428 196.018 215.91C195.881 212.654 195.832 209.399 195.864 206.141C195.876 204.924 195.934 203.713 196.017 202.504C193.859 207.41 191.59 212.268 189.217 217.061L188.655 218.196C187.151 221.226 185.608 224.267 183.801 227.124L183.49 227.61C182.758 228.771 181.758 230.6 180.423 230.966C179.493 231.221 178.357 231.041 177.404 231.023C176.458 231.005 175.511 231.001 174.565 230.963C173.505 230.92 172.493 230.781 171.468 230.504C171.297 230.459 171.136 230.409 170.99 230.345C169.957 232.036 168.203 233.323 166.409 234.073C164.972 234.674 163.466 235.086 161.958 235.467L161.425 235.601C159.808 236.004 157.958 236.195 157.046 237.758L156.835 238.12C156.156 239.272 155.506 240.284 154.384 241.11C153.176 242 151.745 242.559 150.319 242.995C148.859 243.44 147.366 243.782 145.883 244.147L145.479 244.248C144.501 244.493 143.514 244.717 142.541 244.984C142.126 245.098 141.704 245.215 141.297 245.355C140.82 245.519 140.474 245.774 140.098 246.053C139.76 247.234 138.315 247.876 137.127 247.793C136.503 247.75 135.943 247.538 135.434 247.228C134.545 247.985 133.567 248.663 132.661 249.364C131.392 250.346 130.118 251.321 128.837 252.287C126.196 254.278 123.536 256.243 120.847 258.169C116.075 261.588 111.199 264.851 106.24 267.993C104.173 269.302 102.091 270.61 99.9896 271.887L100.214 271.97L100.659 272.138C101.711 272.531 102.882 273.166 103.086 274.393C103.248 275.366 102.704 276.038 101.743 276.156C100.601 276.298 99.7127 275.49 99.0017 274.72C98.6879 274.38 98.3366 274.064 98.036 273.715C97.9134 273.572 97.8193 273.407 97.7363 273.234C95.662 274.457 93.5656 275.639 91.436 276.744L90.9029 277.019C85.6218 279.72 80.4817 282.68 75.1557 285.305C73.7664 285.989 72.0726 286.73 70.3069 287.235C70.7755 289.052 70.7682 291.047 70.7801 292.891C70.7913 294.687 67.9368 294.679 67.9971 292.891L68.0261 292.027C68.0781 290.575 68.163 289.067 68.5074 287.654C63.3053 288.517 58.1084 286.641 57.1408 286.078C56.0728 285.457 55.1034 284.463 54.2966 283.54C52.5701 281.566 51.3721 279.2 50.3091 276.82C48.0323 271.722 46.4192 266.272 45.2398 260.822C40.8919 240.73 42.762 219.224 49.823 199.964C51.5871 195.151 53.6698 190.445 56.0565 185.909L56.3528 185.348C58.7345 180.863 61.3814 176.394 64.7438 172.577C68.246 168.601 72.5662 165.509 77.27 163.109C79.5655 161.938 81.9275 160.923 84.3417 160.023C84.7295 159.879 85.1199 159.749 85.5112 159.625C88.027 158.021 91.0803 156.486 94.1346 156.546C94.3421 156.55 94.5103 156.629 94.6357 156.747C94.7829 156.773 94.9302 156.804 95.0776 156.847C95.4031 156.942 95.7468 157.299 95.7002 157.665L95.6844 157.787C95.6757 157.847 95.6649 157.904 95.6463 157.961C95.7554 157.977 95.8626 158.003 95.9676 158.039C98.8899 157.213 101.765 155.95 104.617 154.932L105.266 154.703C107.655 153.865 110.105 153.045 112.064 151.388C114.013 149.739 115.479 147.604 116.539 145.295C117.844 142.451 118.429 139.371 119.501 136.451ZM178.008 286.448C178.587 286.017 179.271 286.517 179.488 287.05C180.198 288.799 179.847 291.517 178.845 293.064C177.807 294.666 175.322 294.034 175.262 292.093C175.199 290.069 176.375 287.664 178.008 286.448ZM183.985 238.148C184.037 237.921 184.39 237.923 184.443 238.148C184.925 240.201 184.913 242.411 185.055 244.516L185.071 244.749C185.241 247.07 185.383 249.397 185.485 251.721C185.685 256.295 185.923 260.869 186.191 265.439C186.323 267.706 186.465 269.972 186.617 272.237C187.092 271.972 187.581 271.74 188.088 271.535C188.848 271.227 189.588 271.192 190.404 271.201C191.398 271.211 192.146 272.085 192.015 273.06C191.871 274.12 190.937 274.575 189.968 274.424C188.894 274.255 187.815 273.995 186.731 273.887C186.852 275.639 186.977 277.39 187.109 279.14C187.284 281.457 187.513 283.771 187.674 286.089C187.689 286.31 187.706 286.532 187.722 286.754C188.369 286.418 189.056 286.245 189.834 286.033L190.036 285.977C191.166 285.652 192.375 285.203 193.421 285.963C194.123 286.474 194.264 287.315 193.682 287.989C192.799 289.012 191.492 288.813 190.273 288.761L189.617 288.737C188.998 288.713 188.428 288.673 187.856 288.517C187.961 290.027 188.016 291.543 187.831 293.031C187.731 293.835 186.673 294.046 186.393 293.226C185.661 291.082 185.51 288.769 185.242 286.523C184.992 284.426 184.84 282.313 184.676 280.206L184.627 279.574C184.258 274.939 183.963 270.302 183.748 265.657C183.533 261.013 183.403 256.37 183.352 251.721C183.328 249.611 183.363 247.492 183.446 245.382L183.472 244.749C183.567 242.578 183.501 240.275 183.985 238.148ZM87.2809 286.79C87.3091 286.494 87.5465 286.125 87.8997 286.171C88.2252 286.213 88.5606 286.193 88.8826 286.247C89.3075 286.317 89.6495 286.568 90.0448 286.726C90.6872 286.983 91.3874 287.116 92.0465 287.326C93.2831 287.721 93.957 289.023 93.4449 290.24C92.9064 291.518 91.5531 291.808 90.3839 291.272C89.4623 290.849 88.7753 290.173 88.1556 289.391L87.98 289.168C87.713 288.832 87.4099 288.457 87.2979 288.05C87.1889 287.653 87.2426 287.194 87.2809 286.79ZM147.36 280.78C148.9 280.563 150.215 281.09 151.64 281.586L151.756 281.626C153.207 282.127 155.323 282.474 156.067 283.959C156.515 284.855 156.167 286.044 155.111 286.309C153.44 286.729 151.941 285.506 150.559 284.684L150.486 284.641C149.152 283.859 147.775 283.202 146.923 281.853C146.696 281.494 146.893 280.846 147.36 280.78ZM93.5921 158.242C92.975 158.381 92.3579 158.503 91.7415 158.62C89.3967 159.878 87.1207 161.182 84.6997 162.302C82.1311 163.491 79.5719 164.719 77.1319 166.157C72.2026 169.061 68.139 172.839 64.7811 177.468C58.981 185.465 54.6665 194.688 51.5787 204.046C50.7853 206.45 50.0754 208.881 49.4473 211.333C50.5578 210.305 51.8725 209.674 53.3467 209.133C53.9715 208.903 54.7492 209.291 55.0659 209.832C55.2083 210.076 55.2886 210.316 55.2739 210.601C55.2411 211.23 54.8318 211.945 54.1561 212.07C52.5811 212.36 51.0496 212.925 49.5309 213.423C49.3007 213.499 49.1029 213.47 48.9449 213.381C47.4372 219.77 46.494 226.29 46.1599 232.849C45.8773 238.403 46.0516 243.999 46.6665 249.545C47.139 249.333 47.6011 249.133 48.1192 249.013C48.7911 248.856 49.4519 248.666 50.1073 248.451C51.9986 247.831 52.8613 250.954 50.9282 251.43C50.2087 251.607 49.4849 251.754 48.7519 251.862C48.113 251.956 47.5479 251.915 46.9455 251.816C47.4057 255.276 48.0342 258.711 48.8348 262.097L49.0115 262.837C50.0515 267.162 51.2636 271.527 53.0164 275.613C53.8762 277.618 55.0146 279.522 56.4202 281.193C57.1108 282.015 57.8773 282.72 58.7131 283.387C59.409 283.943 61.7744 285.148 64.5758 285.148C67.3772 285.148 68.1356 284.883 69.549 284.397C72.3441 283.434 74.9979 281.898 77.6192 280.529L77.8903 280.388C79.0494 279.788 80.2041 279.18 81.3557 278.566C81.2103 277.391 81.4649 276.405 82.0767 275.32C82.738 274.146 84.3766 274.731 84.4984 275.931L84.5023 275.977C84.5208 276.247 84.5661 276.523 84.6225 276.798C92.323 272.578 99.8604 268.063 107.278 263.358C112.056 260.327 116.783 257.205 121.441 253.993C123.769 252.387 126.078 250.752 128.363 249.085C129.56 248.211 130.752 247.331 131.938 246.443C132.432 246.073 132.917 245.685 133.412 245.313C133.292 245.163 133.174 245.012 133.061 244.863C131.212 242.442 130.012 239.555 129.414 236.577C129.054 234.78 128.879 232.915 128.826 231.082L128.803 230.286C128.766 228.944 128.757 227.539 129.004 226.239C128.668 226.423 128.324 226.605 127.981 226.799C126.752 227.496 125.521 228.191 124.288 228.883C121.82 230.268 119.345 231.637 116.837 232.951C112.359 235.298 107.837 237.531 103.193 239.531L100.934 240.506C97.0117 242.193 93.0577 243.851 88.9801 245.105C86.6801 245.812 84.3628 246.417 82.0298 246.957L82.9733 248.062C83.613 248.812 83.6242 249.887 82.8067 250.519C82.003 251.139 80.9246 250.881 80.3892 250.057L79.4132 248.555C79.2046 248.234 79.0862 247.933 79.019 247.616C77.9444 247.841 76.8669 248.057 75.7865 248.266L73.7441 248.656C70.8277 249.219 68 250.334 65.3932 251.761C64.487 252.257 64.2345 251.294 65.1947 250.622C68.0022 248.659 71.2771 247.548 74.6561 246.615L74.8221 246.57C76.0617 246.23 77.2992 245.876 78.534 245.509C78.3982 245.018 78.3199 244.508 78.3355 243.946C78.3703 242.693 78.481 241.436 78.5474 240.185C78.6869 237.558 78.865 234.939 79.0736 232.317C79.1537 231.307 79.2435 230.294 79.3463 229.282C78.6841 228.927 78.113 228.455 77.3747 228.224L77.2501 228.187C76.4605 227.974 76.727 226.956 77.4284 226.869C78.0637 226.791 78.696 226.827 79.3223 226.961C79.4193 226.982 79.5111 227.006 79.5987 227.033C79.7138 226.095 79.8414 225.16 79.9865 224.231C80.37 221.774 80.6414 219.186 81.4398 216.826C81.499 216.651 81.7585 216.588 81.8546 216.771C83.0161 218.982 83.0566 221.693 83.1875 224.155L83.2037 224.449C83.3579 227.135 83.3667 229.846 83.317 232.535C83.266 235.307 83.1711 238.071 83.0468 240.84C82.9968 241.955 82.9988 243.112 82.8089 244.178C89.7208 241.93 96.5107 239.239 103.019 236.054C107.61 233.806 112.161 231.469 116.66 229.044C118.915 227.829 121.18 226.634 123.432 225.415C124.221 224.987 125.009 224.559 125.797 224.129L126.979 223.484C128.085 222.881 129.008 222.28 130.297 222.237C130.681 222.225 131.025 222.405 131.27 222.677C131.962 222.186 132.762 221.884 133.602 221.891C134.866 220.145 136.15 218.412 137.484 216.717L138.47 215.463C140.176 213.298 141.984 211.1 144.16 209.453C145.131 208.717 146.199 208.166 147.313 207.71C147.051 207.646 146.795 207.517 146.566 207.305C145.502 206.318 145.355 204.485 145.139 203.108C144.915 201.679 145.002 200.401 145.223 198.978C145.309 198.424 146.225 198.309 146.449 198.817C146.92 199.889 147.419 200.916 147.847 201.999L147.974 202.326C148.434 203.545 149.414 204.829 149.35 206.152C149.332 206.514 149.21 206.83 149.023 207.084C149.958 206.774 150.907 206.497 151.841 206.208C154.78 205.299 157.731 204.416 160.727 203.711C161.524 203.524 162.326 203.35 163.131 203.19C163.552 201.187 164.167 199.222 164.891 197.292C164.205 196.94 163.761 196.351 163.17 195.826C162.618 195.335 162.238 194.738 161.766 194.174C161.337 193.661 161.578 192.735 162.35 192.765L162.568 192.774C163.367 192.811 164.142 192.894 164.867 193.267L165.125 193.4C165.479 193.584 165.867 193.795 166.212 194.044C166.663 193.005 167.132 191.976 167.607 190.957L168.222 189.64C169.818 186.212 171.41 182.653 173.414 179.461C174.305 178.042 175.49 177.156 177.192 177.019C178.944 176.877 180.766 177.06 182.52 177.123C184.554 177.195 186.588 177.282 188.62 177.388C188.099 176.843 187.624 176.235 187.101 175.711C186.232 174.843 185.315 174.019 184.35 173.258C182.442 171.752 180.343 170.511 178.163 169.443C175.983 168.374 173.739 167.442 171.692 166.121C170.397 165.286 169.24 164.234 168.183 163.097C167.519 170.271 164.055 176.937 158.852 181.945C153.448 187.147 145.981 190.004 138.675 191.22C131.223 192.46 123.446 192.005 116.318 189.414C112.643 188.078 109.118 186.169 105.974 183.775C105.939 183.983 105.898 184.189 105.816 184.382C105.707 184.642 105.573 184.864 105.419 185.092L105.145 185.493C104.972 185.745 104.796 185.995 104.6 186.229C104.124 186.795 103.451 187.043 102.726 187.04C101.338 187.035 100.286 185.673 100.66 184.326C100.895 183.48 101.397 182.971 102.181 182.639C102.429 182.534 102.682 182.447 102.936 182.36L103.127 182.296C103.384 182.208 103.639 182.124 103.903 182.075C102.414 180.761 101.033 179.332 99.7963 177.789C95.9171 172.952 92.091 166.178 93.3879 159.754C93.4103 159.643 93.5096 159.574 93.6165 159.556C93.6918 159.106 93.9317 158.669 94.2602 158.376C94.0391 158.318 93.8161 158.273 93.5921 158.242ZM133.874 269.31C134.642 268.883 135.435 269.898 134.811 270.526L133.879 271.459C133.014 272.328 132.172 273.207 131.431 274.199L131.252 274.441C130.252 275.801 129.186 277.378 127.549 277.886C125.567 278.501 123.664 276.087 124.811 274.323C125.813 272.782 127.743 272.201 129.407 271.564C130.981 270.961 132.402 270.128 133.874 269.31ZM69.9649 262.199C70.4163 261.607 71.5932 261.919 71.2849 262.755C70.2834 265.472 69.8751 269.175 67.3456 270.98C66.5296 271.562 65.2477 271.294 64.5758 270.623C63.8124 269.859 63.7818 268.783 64.2184 267.852C64.7509 266.715 66.0607 265.891 66.9787 265.025L67.0611 264.946C68.0488 263.987 69.117 263.309 69.9649 262.199ZM175.684 265.325C176.49 264.977 178.589 264.302 179.212 265.101C179.241 265.131 179.266 265.163 179.286 265.198C179.438 265.463 179.461 265.837 179.286 266.101C178.56 267.191 177.805 268.005 176.774 268.78L176.659 268.867C175.536 269.692 174.482 270.661 173.114 271.034C171.219 271.55 169.895 269.176 171.226 267.789C172.299 266.673 173.936 266.093 175.357 265.47L175.684 265.325ZM99.5651 249.804C99.248 249.231 99.8959 248.527 100.483 248.886C102.156 249.909 104.106 250.677 105.986 251.228C106.746 251.452 107.433 252.223 107.376 253.056L107.367 253.182C107.345 253.476 107.304 253.768 107.118 254.012C106.463 254.869 105.526 255.199 104.526 254.692C102.297 253.562 100.771 251.985 99.5651 249.804ZM148.482 248.068C148.441 247.827 148.617 247.641 148.862 247.687C150.277 247.955 151.583 248.639 152.798 249.424C153.449 249.846 154.077 250.308 154.727 250.734C155.53 251.259 155.831 251.693 155.949 252.657C156.028 253.294 155.434 253.875 154.889 254.051C153.404 254.529 151.703 252.958 150.698 251.937L150.653 251.891C149.6 250.818 148.731 249.548 148.482 248.068ZM190.962 246.4C190.64 245.529 191.751 244.807 192.478 245.235C193.162 245.637 193.904 245.971 194.55 246.433C195.143 246.857 195.683 247.36 196.252 247.82L196.533 248.042C197.576 248.881 199.298 250.956 197.807 252.159C196.387 253.305 194.505 251.842 193.552 250.772L193.486 250.697C192.938 250.063 192.262 249.375 191.864 248.635C191.49 247.939 191.236 247.139 190.962 246.4ZM176.963 178.978C175.185 179.323 174.461 181.518 173.712 182.949C171.945 186.327 170.32 189.766 168.688 193.209C168.186 194.268 167.696 195.336 167.203 196.401C167.173 196.484 167.134 196.567 167.088 196.648C166.077 198.826 165.036 200.989 163.819 203.057C164.933 202.848 166.052 202.67 167.176 202.53C167.119 201.472 167.844 200.055 168.203 199.164L168.232 199.089C168.679 197.946 169.148 196.147 170.298 195.555C170.682 195.357 171.092 195.605 171.121 196.027C171.208 197.284 169.979 198.723 169.378 199.79C169.015 200.435 168.661 201.084 168.316 201.739C168.187 201.984 168.078 202.225 167.946 202.441C168.525 202.379 169.106 202.323 169.688 202.282L170.067 202.256C172.224 202.114 174.515 202.073 176.464 203.137C178.272 204.124 179.197 206.231 178.203 208.15C176.966 210.54 174.24 210.857 171.844 211.051C168.85 211.292 165.85 211.729 162.878 212.154C159.803 212.594 156.908 213.728 153.88 214.31C153.598 214.364 153.423 213.996 153.681 213.838C156.07 212.384 158.974 211.583 161.645 210.768L161.861 210.702C163.31 210.257 164.726 209.748 166.225 209.495C167.679 209.25 169.143 209.052 170.611 208.901L170.753 208.888C172.369 208.752 176.491 208.798 176.317 206.405C176.201 204.822 173.628 204.548 172.453 204.529C167.067 204.443 161.642 205.873 156.524 207.405L155.381 207.748C153.285 208.379 151.186 209.028 149.13 209.768C146.799 210.605 144.963 211.912 143.266 213.7C141.384 215.683 139.561 217.711 137.608 219.627C136.377 220.835 135.131 222.021 133.874 223.198C133.59 223.566 133.363 223.966 133.205 224.485C132.94 225.361 133.001 226.176 133.101 227.077C133.354 229.351 133.41 231.648 133.727 233.915C134.021 236.015 134.432 238.192 135.304 240.141C135.649 240.912 136.098 241.67 136.61 242.348L137.023 242.885C137.203 243.118 137.404 243.373 137.616 243.613C137.926 243.234 138.375 242.988 138.897 243.05C140.006 243.18 140.877 243.149 141.965 242.894C142.807 242.697 143.643 242.466 144.481 242.252C146.127 241.832 147.788 241.45 149.417 240.968L149.697 240.883C150.911 240.511 152.126 240.044 153.136 239.26C154.31 238.349 154.672 237.034 155.541 235.898C157.398 233.47 161.411 233.521 164.128 232.856C166.437 232.291 168.659 231.4 170.257 229.724L170.35 229.624C170.279 229.325 170.394 228.988 170.672 228.833L170.733 228.799C170.841 228.738 170.957 228.713 171.072 228.716C171.22 228.498 171.363 228.273 171.493 228.033C171.6 227.836 171.868 227.981 171.833 228.176C171.812 228.293 171.783 228.406 171.755 228.52C173.303 228.122 175.003 228.198 176.575 228.199L178.614 228.192C178.967 228.187 179.493 228.17 179.54 228.148L179.588 228.127C179.715 228.072 179.534 228.163 179.623 228.045C179.721 227.915 179.817 227.783 179.912 227.651C180.25 227.178 180.569 226.69 180.883 226.198C177.468 227.069 173.93 227.61 170.442 228.062C166.701 228.547 162.911 228.883 159.136 228.887C158.096 228.888 158.105 227.316 159.136 227.277C163.133 227.124 167.109 226.912 171.079 226.4C173.132 226.135 175.177 225.802 177.21 225.413C177.994 225.263 178.778 225.104 179.559 224.935L180.144 224.808C180.511 224.726 181.549 224.609 182.055 224.27C182.155 224.099 182.254 223.928 182.353 223.757C182.304 223.157 180.78 223.238 180.422 223.237C179.409 223.235 178.395 223.243 177.382 223.246C175.355 223.252 173.328 223.234 171.301 223.218C167.25 223.185 163.185 223.043 159.138 223.216C158.156 223.258 157.639 221.682 158.61 221.267C162.897 219.437 167.655 219.039 172.232 218.476C174.639 218.18 177.047 217.839 179.4 217.24L179.982 217.092C181.46 216.713 183.093 216.25 184.337 215.347C182.466 214.59 180.141 214.677 178.202 214.569L178.053 214.561C175.338 214.394 172.618 214.309 169.897 214.305C164.331 214.297 158.762 214.494 153.202 214.758C153.063 214.765 153.034 214.544 153.169 214.515C158.884 213.267 164.693 212.666 170.541 212.574C173.265 212.531 175.99 212.569 178.712 212.69L179.71 212.736C182.031 212.836 184.605 212.863 186.547 214.265C186.843 214.478 186.999 214.751 187.023 215.04C189.627 209.848 192.032 204.547 194.446 199.282C196.323 195.188 198.13 191.06 200.075 186.997L200.705 185.683C201.549 183.93 202.412 182.176 203.372 180.486C199.784 180.006 196.177 179.673 192.567 179.418C189.278 179.186 178.547 178.671 176.963 178.978ZM175.375 235.249C175.784 235.021 176.411 235.207 176.512 235.711C176.587 236.087 176.715 236.504 176.715 236.889C176.715 237.349 176.55 237.85 176.462 238.3C176.26 239.336 176.012 240.178 175.485 241.101C175.156 241.678 174.491 242.07 173.822 242.055C173.293 242.043 172.823 241.901 172.46 241.491C172.025 241 171.726 240.277 171.965 239.616C172.59 237.883 173.74 236.157 175.375 235.249ZM88.6017 233.52C89.559 231.843 91.8282 230.344 93.8084 230.492C96.7817 230.715 97.3885 234.72 94.5097 235.676C92.789 236.247 90.4217 235.66 88.9164 234.72C88.5106 234.467 88.3618 233.94 88.6017 233.52ZM58.0429 227.79C57.8255 227.473 58.1849 227.112 58.5088 227.183C59.2274 227.341 60.002 227.41 60.7058 227.624C61.4265 227.844 62.1241 228.207 62.8381 228.458C64.3337 228.982 65.9311 229.245 67.3785 229.878C67.9571 230.131 68.4122 230.969 68.3587 231.587L68.3451 231.731C68.3131 232.038 68.26 232.305 68.0885 232.586C67.6279 233.338 66.7153 233.727 65.8539 233.495C64.256 233.066 62.6946 231.963 61.3321 231.046L61.0803 230.879C60.4851 230.487 59.845 230.076 59.3653 229.572C58.8647 229.044 58.4532 228.387 58.0429 227.79ZM112.972 221.689C112.788 221.027 113.612 220.589 114.093 221.036C115.053 221.931 116.056 222.761 116.996 223.678L117.06 223.741C117.733 224.417 118.712 225.722 117.837 226.597C116.715 227.72 115.152 226.054 114.551 225.187C113.787 224.086 113.329 222.976 112.972 221.689ZM186.433 216.21C185.008 217.719 182.814 218.413 180.883 218.988C178.592 219.669 176.232 220.076 173.87 220.41C171.587 220.733 169.322 221.022 167.075 221.393C168.775 221.414 170.474 221.427 172.169 221.457C174.124 221.493 176.079 221.535 178.033 221.592C179.457 221.633 181.127 221.438 182.48 221.967C182.724 222.062 182.952 222.195 183.151 222.355C184.288 220.332 185.378 218.281 186.433 216.21ZM98.5935 202.1C100.08 201.627 101.477 201 103.053 201.163C103.472 201.206 103.772 201.614 103.543 202.017C102.797 203.332 101.582 204.074 100.387 204.953L100.282 205.031C98.9733 206.004 97.5686 206.891 96.1458 207.69C93.6962 209.065 91.501 205.13 93.9748 203.975C95.4634 203.28 97.027 202.598 98.5935 202.1ZM125.354 198.683C127.628 198.832 129.901 198.934 132.178 199.026C134.815 199.133 133.928 203.193 131.725 202.371C129.549 201.559 127.372 200.758 125.176 200C124.507 199.77 124.561 198.671 125.312 198.681L125.354 198.683ZM67.0295 191.46C67.6188 191.418 68.2132 191.547 68.8035 191.604L69.4315 191.665C70.7262 191.794 71.9401 191.953 73.1747 192.48C75.4529 193.453 74.2293 197.117 71.9423 197.032C70.252 196.97 68.8066 196.244 67.3792 195.399C66.1314 194.66 65.3664 193.735 64.5238 192.574C64.2447 192.19 64.6336 191.759 65.0136 191.72C65.6831 191.652 66.3598 191.507 67.0295 191.46ZM181.228 183.978C180.851 186.331 179.915 188.537 178.505 190.457C177.797 191.422 176.553 191.459 175.85 190.457C174.857 189.04 175.469 187.417 176.218 186.056L176.439 185.658C176.774 185.06 177.289 184.189 177.877 183.587L177.887 183.526C178.202 181.062 181.616 181.554 181.228 183.978ZM89.2529 168.876C89.8198 168.365 90.8638 168.518 91.0477 169.35C91.3052 170.514 91.4619 171.826 91.2933 173.007C91.202 173.648 91.1677 174.367 90.9159 174.964C90.6452 175.606 90.1246 176.099 89.634 176.582C88.6547 177.545 86.5902 177.227 86.3279 175.709L86.2946 175.523C86.1627 174.804 85.9939 174.037 86.1893 173.325C86.3367 172.788 86.6663 172.24 86.939 171.741L86.9965 171.635C87.5427 170.618 88.3941 169.649 89.2529 168.876ZM168.938 171.353L169.143 171.355C170.726 171.386 173.619 171.771 173.634 173.727C173.638 174.188 173.296 174.666 172.839 174.772C171.893 174.992 171.282 174.433 170.608 173.868C170.056 173.406 169.414 173.037 168.746 172.772C168.025 172.485 168.072 171.351 168.938 171.353Z" fill="#1C0C5B"/>
<path fill-rule="evenodd" clip-rule="evenodd" d="M173.949 113.954C172.569 103.993 169.412 94.3222 168.959 84.2121C168.69 79.8858 168.42 75.5593 168.151 71.2326C168.048 68.5304 164.54 67.6187 163.199 70.0127C160.153 66.6328 154.698 67.1306 150.536 67.2332C126.036 68.1017 102.754 84.6729 94.3438 107.778C94.1416 108.329 94.2027 108.915 94.4314 109.44C90.5113 122.517 104.375 130.938 113.83 136.769C117.665 140.823 122.174 144.192 127.265 146.499C133.121 149.256 139.64 150.792 146.11 150.939C147.531 150.972 148.384 149.823 148.486 148.634C150.551 148.154 154.083 148.708 155.175 146.592C167.623 141.183 175.734 127.474 173.949 113.954V113.954Z" fill="white"/>
<path fill-rule="evenodd" clip-rule="evenodd" d="M168.124 78.6299C168.089 78.3069 168.555 78.297 168.651 78.5586C169.44 80.7088 170.258 82.8443 170.883 85.049C171.486 87.1737 171.92 89.3467 172.359 91.5104C173.088 95.1011 173.715 98.7183 174.233 102.347C175.341 101.481 176.79 101.403 178.155 102.076C178.795 102.392 179.041 103.228 178.887 103.876C178.764 104.396 178.613 104.913 178.432 105.42C178.819 105.762 179.147 106.185 179.386 106.669C180.014 107.946 179.812 109.287 179.248 110.505C179.291 110.577 179.333 110.651 179.374 110.728C180.189 112.313 179.753 113.732 179.157 115.279C178.71 116.436 178.96 117.739 177.997 118.612C177.662 119.688 177.16 120.688 176.429 121.592C176.263 121.896 176.014 122.141 175.719 122.32C175.645 124.018 175.466 125.71 175.129 127.387C173.82 133.899 169.668 139.701 164.528 143.794C159.498 147.798 153.591 150.191 147.217 150.965C144.122 151.34 141.022 151.222 137.952 150.685L137.57 150.617C134.737 150.103 131.309 149.252 129.351 147.115C128.321 145.991 128.923 143.517 130.744 143.75C131.709 143.874 132.548 144.028 133.457 144.385C134.165 144.663 134.875 144.93 135.602 145.157C136.995 145.591 138.436 145.929 139.883 146.116C142.896 146.506 146.028 146.403 149.007 145.815C154.423 144.746 159.686 142.28 163.797 138.567C168.575 134.252 171.376 128.666 171.788 122.224C172.247 115.049 171.419 107.702 170.732 100.564C170.374 96.8511 169.92 93.1457 169.374 89.4559C168.839 85.8506 168.519 82.2504 168.124 78.6299ZM125.836 55.4618L126.068 55.4262C135.266 54.0258 144.945 54.1251 153.592 57.9228C155.249 58.6513 156.871 59.5297 158.398 60.549C159.492 60.4348 160.592 60.3421 161.673 60.3269C163.033 60.309 164.36 61.0157 164.527 62.3917C165.801 62.5502 166.974 63.0192 167.725 63.9573C168.017 64.3225 168.213 64.7452 168.312 65.1855C169.096 65.3707 169.864 65.6544 170.592 66.0287C171.477 66.4844 171.987 67.7525 171.675 68.6906C171.603 68.9036 171.521 69.111 171.429 69.314L171.358 69.4654L171.4 69.5226C172.106 70.6586 171.616 72.1491 170.533 72.8271C169.721 73.3357 168.814 73.7408 167.881 73.9367C167.958 74.311 168.028 74.6875 168.086 75.0683C168.108 75.2227 167.91 75.3327 167.821 75.1806C167.821 75.1806 168.156 76.222 168.66 77.3692C168.858 77.8203 168.224 78.221 167.982 77.7653C167.34 76.55 166.941 75.3039 166.358 74.0512C165.819 74.016 165.282 73.8927 164.765 73.6571C164.426 73.503 164.169 73.2432 163.984 72.9328C163.972 72.946 163.966 72.9614 163.955 72.9769C162.219 75.2114 158.825 75.9952 156.202 76.7019C153.385 77.4617 150.502 77.9304 147.608 78.276C142.555 78.877 137.463 78.9893 132.386 79.2229C132.05 79.2381 131.714 79.2551 131.378 79.2713C129.316 81.081 126.66 82.2056 123.936 82.5475C122.555 82.7205 120.922 82.6765 119.374 82.3238C118.814 82.8962 118.106 83.3202 117.333 83.538C117.194 86.4218 115.587 89.1522 113.157 90.7437L113.2 90.9151C113.804 93.3777 113.796 96.0695 111.631 97.781C111.338 98.0126 111.018 98.2112 110.681 98.3759L110.755 98.546C111.873 101.16 112.23 104.048 110.128 106.217C109.276 107.096 107.78 106.888 107.141 105.879L107.11 105.828C107.074 105.768 107.036 105.71 106.999 105.651C106.942 105.768 106.855 105.866 106.726 105.921C105.927 106.265 105.608 106.011 104.879 105.657C104.206 105.327 103.495 105.08 102.769 104.889C102.177 104.734 101.587 104.624 100.993 104.561C97.2383 105.996 94.8131 110.399 95.3897 114.531C95.7022 116.781 96.937 119.009 99.0891 119.943C100.031 120.352 101.138 120.524 102.157 120.385C103.537 120.198 104.597 119.329 106.026 119.826C106.589 120.022 106.941 120.465 106.972 121.07C107.023 122.021 106.686 122.734 106.118 123.263C107.119 124.099 107.927 125.262 108.796 126.189C109.884 127.349 110.986 128.509 112.161 129.579C113.27 130.594 114.45 131.536 115.7 132.373L115.831 132.46C117.397 133.48 119.371 134.386 119.446 136.519C119.47 137.162 119.08 137.751 118.552 138.079C116.578 139.303 114.43 137.696 112.883 136.519C112.26 136.045 111.655 135.554 111.072 135.046C110.682 135.076 110.258 135.013 109.815 134.817C109.531 134.693 109.254 134.548 108.981 134.394C108.094 134.616 107.258 134.42 106.569 133.956C105.577 134.2 104.525 134.229 103.631 134.033C102.815 133.852 102.086 133.467 101.486 132.95C100.231 133.35 98.8382 133.276 97.6014 132.516C96.8598 132.06 96.281 131.411 95.9663 130.651C95.8061 130.4 95.7036 130.108 95.6958 129.785L95.6956 129.663C94.6173 129.687 93.5367 129.317 92.7027 128.463C91.9368 127.679 91.5629 126.702 91.5209 125.709C90.4359 125.401 89.4434 124.768 88.6886 123.793C87.4386 122.177 87.2716 120.181 87.9142 118.397C87.8721 118.303 87.8347 118.206 87.8017 118.109C86.8048 116.702 86.1468 115.005 86.1996 113.303C86.2062 113.039 86.2414 112.779 86.2942 112.522C85.3127 112 84.5909 111.084 84.5139 109.919C84.4544 109.005 84.7823 108.112 85.3743 107.436C85.086 106.747 84.9584 105.998 85.0464 105.25C85.1367 104.481 85.4073 103.814 85.8037 103.257C85.7947 103.055 85.8057 102.85 85.8387 102.641C85.7991 102.436 85.7661 102.225 85.7487 102.009C85.5614 99.6488 87.1899 97.5838 89.1727 96.494C89.6943 96.2078 90.2577 95.9744 90.8211 95.7763C91.2304 95.631 91.8466 95.5825 92.2075 95.3161C92.1921 95.3051 92.3418 95.1116 92.3682 95.0079C92.3968 94.8802 92.4276 94.7547 92.4432 94.6248C92.5024 94.0789 92.4584 93.5175 92.4474 92.9693C92.399 90.4815 92.476 87.9827 92.7379 85.5082C93.2242 80.9201 94.4238 76.4311 96.7608 72.4221C98.7216 69.0625 101.406 66.2247 104.485 63.8712C110.618 59.1856 118.27 56.638 125.836 55.4618ZM97.4163 112.519C96.6181 110.6 100.376 110.581 101.37 110.672L101.399 110.675C103.636 110.898 107.132 111.974 108.047 114.231C108.426 115.166 107.305 116.179 106.408 115.872C105.529 115.571 105.037 114.925 104.332 114.36C104.147 114.211 103.954 114.073 103.758 113.939C103.862 114.269 104.027 114.573 104.257 114.8L104.311 114.851C105.393 115.824 103.457 117.352 102.739 116.064C102.357 115.379 102.204 114.627 102.323 113.849C102.358 113.619 102.42 113.409 102.509 113.209C102.438 113.173 102.368 113.134 102.296 113.1L102.167 113.04C101.305 112.649 97.6297 111.114 97.6595 112.486C97.6628 112.638 97.4659 112.639 97.4163 112.519Z" fill="#1C0C5B"/>
<path fill-rule="evenodd" clip-rule="evenodd" d="M149.117 133.619C147.637 133.015 146.317 132.008 145.352 130.722C145.017 130.274 144.93 129.802 145 129.37C145.079 128.884 145.367 128.444 145.758 128.149C146.151 127.853 146.643 127.707 147.118 127.781C147.531 127.846 147.942 128.072 148.267 128.541L148.335 128.635C148.909 129.411 149.657 130.048 150.509 130.459C151.33 130.855 152.248 131.04 153.198 130.932C155.008 130.728 156.255 129.748 157.581 128.419C157.746 128.251 157.91 128.078 158.075 127.902C158.18 127.742 158.324 127.64 158.485 127.586C158.664 127.526 158.866 127.53 159.051 127.594C159.229 127.657 159.389 127.775 159.496 127.932C159.597 128.081 159.655 128.266 159.636 128.478C159.515 129.856 158.795 131.085 157.772 132.051C156.636 133.124 155.13 133.866 153.712 134.126C152.15 134.412 150.558 134.207 149.117 133.619V133.619ZM154.449 112.361C156.11 113.371 158.643 115.728 156.855 118.233C154.75 120.442 151.721 117.909 150.228 116.764C148.843 115.876 147.288 118.159 148.572 119.196C159.361 127.186 163.739 112.625 155.289 111.173C154.359 111.012 154.013 112.048 154.449 112.361ZM135.115 103.066C135.299 100.786 138.77 100.268 139.115 102.524C139.424 104.545 139.06 106.402 138.15 108.221C137.281 109.96 135.095 109.148 134.93 107.566C134.709 105.444 135.001 104.484 135.115 103.066ZM161.538 102.056C162.022 101.422 162.72 100.989 163.558 101.234C166.173 101.998 165.402 105.713 164.484 107.521C163.984 108.503 162.371 108.752 161.642 107.888C160.454 106.478 159.885 103.662 161.395 102.273C161.436 102.202 161.482 102.129 161.538 102.056ZM138.114 93.0889L138.527 93.0166C139.805 92.7955 141.394 92.583 142.298 93.6109C142.778 94.156 142.943 95.1692 142.298 95.691C141.164 96.609 139.911 96.2532 138.552 96.331C137.432 96.3952 136.356 96.5806 135.278 96.8891C132.912 97.5656 130.984 98.8007 128.963 100.157C128.697 100.335 128.427 99.9955 128.553 99.7473C129.72 97.4615 131.981 95.5837 134.245 94.4392C135.454 93.8282 136.776 93.3214 138.114 93.0889ZM159.153 92.0649L159.47 92.1297C162.911 92.8493 167.382 94.2868 169.012 97.6683C169.074 98.1464 169.008 98.2489 168.955 98.3158L168.937 98.3381C168.893 98.3953 168.858 98.4741 168.651 98.5392C168.593 98.5255 168.535 98.511 168.477 98.4956C167.73 98.2997 167.139 98.03 166.566 97.75L165.946 97.4443C165.226 97.0912 164.5 96.751 163.731 96.4999C162.088 95.964 160.399 95.5866 158.684 95.385C158.312 95.3413 157.954 95.2158 157.672 95.0007C157.404 94.7965 157.199 94.5138 157.105 94.138C156.984 93.6516 157.019 93.2834 157.28 92.8447C157.476 92.5152 157.757 92.2868 158.079 92.1557C158.408 92.022 158.782 91.9904 159.153 92.0649Z" fill="#1C0C5B"/>
<path fill-rule="evenodd" clip-rule="evenodd" d="M174.144 113.702C171.472 116.463 167.012 117.256 163.457 115.775C154.329 111.96 158.797 100.06 165.837 96.8646C166.716 96.6453 167.89 96.1251 168.962 96.0071C169.058 95.9595 169.269 96.0971 169.525 95.967C177.287 96.834 179.054 108.888 174.144 113.702M144.704 114.408C141.707 118.385 136.136 119.611 131.584 117.763C122.591 114.22 125.781 103.668 131.933 99.5316C144.93 94.6461 150.297 107.077 144.704 114.408M125.21 105.598C125.201 105.594 125.193 105.592 125.184 105.588C125.232 105.567 125.28 105.546 125.327 105.525C125.311 105.565 125.295 105.605 125.28 105.646C125.256 105.629 125.236 105.611 125.21 105.598M180.331 101.3C179.597 101.302 178.537 101.422 177.93 101.932C176.432 96.8783 170.903 92.2015 166.095 95.6117C162.309 96.8298 159.499 99.5314 157.903 103.123C155.023 101.41 150.496 102.141 147.999 104.407C146.364 99.0019 142.34 97.1092 137.55 96.8298C132.322 95.9732 127.111 101.052 125.485 105.127C124.134 104.973 122.114 104.543 120.842 105.377C112.588 103.212 98.1565 102.018 96.4784 103.221C95.2826 103.68 94.6263 106.504 96.2967 106.656C97.7522 106.45 96.1268 104.587 97.594 104.384C105.412 103.899 113.001 105.474 120.735 106.135C121.426 107.064 123.657 107.375 124.848 107.002C122.973 113.914 127.02 118.617 133.084 120.025C142.474 122.183 150.643 113.78 148.188 105.04C151.032 103.624 154.304 103.685 157.403 104.431C152.225 123.494 182.915 122.639 178.122 102.585C181.312 104.172 182.004 101.62 180.331 101.3" fill="#3D2C8D"/>
</svg>
